<svg width="135" height="27" viewBox="0 0 135 27" fill="none" xmlns="http://www.w3.org/2000/svg">
<path d="M109.955 15.6418H109.838C108.821 15.2123 107.86 14.6676 106.975 14.0192C106.78 13.8347 106.624 13.614 106.517 13.3702C106.411 13.1263 106.356 12.8642 106.356 12.5995C106.356 12.3347 106.411 12.0726 106.517 11.8288C106.624 11.5849 106.78 11.3642 106.975 11.1797C107.44 10.794 108.039 10.5964 108.65 10.628C109.236 10.6241 109.813 10.7696 110.324 11.0499C110.888 11.426 111.353 11.9264 111.68 12.5102C111.934 12.9354 112.25 13.3233 112.617 13.6623C112.834 13.8541 113.111 13.9685 113.404 13.9868C113.541 13.9882 113.677 13.9597 113.802 13.9036C113.926 13.8474 114.036 13.765 114.124 13.6623C114.318 13.3921 114.413 13.0661 114.392 12.7374C114.394 11.7407 114.11 10.7632 113.571 9.91407C113.019 9.02164 112.467 8.56731 111.897 8.56731L111.345 8.66467C111.059 8.75594 110.78 8.86432 110.508 8.98919C110.102 8.88611 109.687 8.81556 109.269 8.77825C108.856 8.77825 108.438 8.77825 108.013 8.77825C106.483 8.67733 104.971 9.15409 103.795 10.1088C103.261 10.5575 102.834 11.1137 102.545 11.7387C102.256 12.3637 102.111 13.0423 102.121 13.7272C102.133 14.6747 102.488 15.5879 103.125 16.3071C104.193 17.3477 105.461 18.1747 106.858 18.741L107.863 19.2278C109.821 20.1364 110.826 21.0775 110.826 22.0349C110.834 22.3223 110.776 22.6079 110.658 22.8714C110.539 23.135 110.362 23.3701 110.14 23.5601C109.617 23.9577 108.961 24.1542 108.298 24.1118C107.65 24.1123 107.007 23.9911 106.406 23.7548C105.843 23.5181 105.348 23.1502 104.967 22.6839C104.718 22.3557 104.489 22.0144 104.28 21.6617C103.744 20.753 103.186 20.2987 102.606 20.2987C102.463 20.2999 102.323 20.3327 102.195 20.3946C102.067 20.4564 101.956 20.5457 101.869 20.6557C101.658 20.9139 101.546 21.2349 101.551 21.5643C101.582 22.4555 101.774 23.3344 102.121 24.1605C102.331 24.8539 102.71 25.4883 103.225 26.0102C103.339 26.0989 103.463 26.1751 103.594 26.2374C103.709 26.2907 103.835 26.3185 103.962 26.3185C104.138 26.3017 104.312 26.2691 104.481 26.2212C104.676 26.138 104.861 26.0346 105.033 25.9129L106.892 26.2212C107.344 26.2212 107.812 26.3023 108.281 26.3185C110.003 26.3645 111.681 25.7859 112.985 24.6959C113.586 24.2218 114.067 23.6224 114.395 22.9424C114.723 22.2625 114.887 21.5196 114.877 20.7692C114.877 18.9195 113.203 17.232 109.855 15.6581L109.955 15.6418ZM134.096 23.771L133.644 23.5926C133.397 23.4518 133.199 23.2428 133.075 22.9922C132.952 22.5867 132.896 22.1652 132.907 21.7428V16.1773C133.077 14.177 132.584 12.1764 131.501 10.4657C130.962 9.82318 130.272 9.3154 129.488 8.98506C128.704 8.65472 127.85 8.51146 126.998 8.56731C126.253 8.55134 125.514 8.70122 124.838 9.00541C124.134 9.30695 123.493 9.73034 122.946 10.2548C122.723 10.4665 122.515 10.6943 122.327 10.9363C122.109 11.1959 121.992 11.3257 121.942 11.3257C121.888 11.3269 121.835 11.314 121.787 11.2883C121.74 11.2626 121.701 11.2251 121.674 11.1797C121.641 11.0464 121.641 10.9073 121.674 10.774V9.96274C121.674 7.64243 121.674 5.38702 121.808 3.16407V2.45012C121.839 2.06947 121.745 1.68909 121.54 1.36298C121.441 1.24864 121.314 1.15937 121.171 1.10285C121.028 1.04633 120.873 1.02424 120.72 1.03846C120.158 1.03539 119.596 1.08977 119.046 1.20072C118.475 1.31232 117.915 1.46971 117.372 1.67128C116.637 1.90932 115.939 2.24224 115.296 2.66106C115.164 2.7473 115.055 2.86315 114.98 2.99876C114.904 3.13436 114.863 3.28571 114.86 3.43991C114.86 3.84556 115.212 4.13762 115.898 4.33234C116.348 4.39734 116.774 4.57025 117.137 4.83534C117.423 5.54249 117.554 6.29947 117.522 7.0583C117.522 8.29147 117.64 10.8714 117.64 14.8143V20.1364C117.673 21.001 117.606 21.8665 117.439 22.7164C117.348 23.1103 117.109 23.4574 116.769 23.6899L116.283 23.8846C115.714 24.0956 115.446 24.3876 115.446 24.7446C115.437 24.9856 115.516 25.222 115.669 25.412C115.822 25.602 116.04 25.7335 116.283 25.7831C117.479 26.013 118.698 26.1055 119.916 26.0589C121.005 26.1247 122.098 26.0428 123.164 25.8155C123.75 25.637 124.035 25.3287 124.035 24.8906C124.035 24.4525 123.733 24.128 123.131 23.9333C122.9 23.8581 122.677 23.7659 122.461 23.6575C122.195 23.4833 122.009 23.2157 121.942 22.9111C121.839 22.1581 121.794 21.3988 121.808 20.6394C121.808 18.4165 121.808 16.8588 121.959 15.9826C122.018 15.2802 122.205 14.5935 122.511 13.9543C122.796 13.3126 123.274 12.7695 123.884 12.3966C124.378 12.0664 124.959 11.8806 125.558 11.8612C126.073 11.8231 126.588 11.9338 127.038 12.1793C127.488 12.4248 127.852 12.794 128.086 13.2404C128.728 15.455 128.966 17.7613 128.789 20.0553C128.817 20.9023 128.761 21.7499 128.622 22.5865C128.601 22.7758 128.54 22.9587 128.442 23.1236C128.344 23.2885 128.211 23.4317 128.052 23.5439C127.844 23.6552 127.626 23.7475 127.4 23.8197C126.814 24.0307 126.512 24.3552 126.512 24.7771C126.512 25.1989 126.797 25.5234 127.366 25.7019C128.405 25.923 129.468 26.0157 130.53 25.9778C131.748 26.0326 132.969 25.9399 134.163 25.7019C134.402 25.644 134.614 25.5104 134.766 25.3223C134.917 25.1341 135 24.9022 135 24.6635C135 24.274 134.715 23.982 134.129 23.7873L134.096 23.771ZM92.5949 4.10517C92.5783 3.66065 92.447 3.22725 92.2131 2.84459C91.9791 2.46192 91.6499 2.14221 91.2556 1.91467C90.2616 1.29174 89.0892 0.990627 87.9074 1.05469C86.2676 0.951675 84.6495 1.46281 83.3873 2.48258C82.8235 2.99528 82.3817 3.62083 82.0926 4.31576C81.8035 5.01068 81.674 5.75829 81.7132 6.50661C81.7132 6.89604 81.7132 7.30169 81.7132 7.69111C81.78 8.18515 81.8863 8.6734 82.0312 9.15145H80.0391C79.8273 9.13515 79.6172 9.19914 79.4531 9.32993C79.3298 9.51243 79.2711 9.72883 79.2857 9.94652V10.3522C79.268 10.5782 79.3205 10.8043 79.4364 11.0012C79.5105 11.0717 79.6005 11.1245 79.6993 11.1555C79.7981 11.1865 79.9029 11.1947 80.0056 11.1797H82.0312V21.0613C82.0672 21.7308 82.0109 22.402 81.8638 23.0571C81.8271 23.2171 81.7579 23.3683 81.6601 23.5021C81.5624 23.6358 81.4382 23.7493 81.2946 23.8359C81.1478 23.9163 80.99 23.9764 80.8259 24.0144C80.2734 24.2254 79.9888 24.5012 79.9888 24.8582C80.0137 25.0855 80.1109 25.2997 80.2668 25.4712C80.4228 25.6427 80.6298 25.763 80.8594 25.8155C81.9604 26.0334 83.0848 26.1206 84.2076 26.0751C85.3304 26.1206 86.4547 26.0334 87.5558 25.8155C88.1417 25.6533 88.4263 25.345 88.4263 24.9069C88.4263 24.4688 88.0748 24.1118 87.3884 23.9008L86.702 23.6412C86.5576 23.5483 86.4382 23.4232 86.3537 23.2764C86.2693 23.1296 86.2222 22.9654 86.2165 22.7975C86.0881 21.851 86.0432 20.8956 86.0826 19.9417V11.0823H88.7277C88.8342 11.0954 88.9424 11.0846 89.044 11.0509C89.1455 11.0171 89.2378 10.9613 89.3136 10.8876C89.4489 10.7038 89.514 10.4801 89.4978 10.2548V9.84916C89.5202 9.62572 89.461 9.40174 89.3304 9.21635C89.2467 9.15081 89.15 9.10259 89.0464 9.07468C88.9427 9.04677 88.8342 9.03977 88.7277 9.05409L86.183 9.15145C86.1192 8.21411 85.9622 7.28492 85.7143 6.37681C85.5534 5.75859 85.4414 5.12935 85.3795 4.4946C85.3708 4.29548 85.4034 4.09671 85.4753 3.91C85.5472 3.72329 85.6569 3.55241 85.798 3.40746C85.9368 3.26917 86.1037 3.16028 86.2881 3.08767C86.4725 3.01505 86.6704 2.98029 86.8694 2.98558C87.243 3.00755 87.6015 3.13645 87.8995 3.35596C88.1975 3.57547 88.4217 3.87574 88.5435 4.21875L88.8783 4.83534C89.0584 5.11015 89.3051 5.33809 89.5969 5.4993C89.8887 5.6605 90.2168 5.75008 90.5525 5.76022C90.7912 5.786 91.0329 5.76166 91.2611 5.68887C91.4893 5.61607 91.6987 5.49652 91.875 5.33835C92.0303 5.17829 92.1504 4.98934 92.2281 4.78294C92.3058 4.57654 92.3395 4.357 92.327 4.13762L92.5949 4.10517ZM60.6864 21.4345C60.501 21.9597 60.1884 22.4342 59.7747 22.8182C59.3611 23.2021 58.8585 23.4844 58.3092 23.6412C57.5665 23.8338 56.7836 23.8251 56.0456 23.6163C55.3077 23.4074 54.643 23.0064 54.1239 22.4567C52.6241 21.0763 51.5761 19.2988 51.1105 17.3456C50.659 16.0732 50.659 14.6912 51.1105 13.4189C51.3085 12.8904 51.6358 12.4165 52.0645 12.0378C52.4931 11.659 53.0103 11.3869 53.5714 11.2446C54.3147 11.0628 55.0945 11.0767 55.8303 11.285C56.5662 11.4932 57.2312 11.8882 57.7567 12.4291C59.2528 13.7928 60.3009 15.5537 60.7701 17.4916C61.2057 18.772 61.2057 20.1541 60.7701 21.4345H60.6864ZM61.7243 10.5956C60.9346 9.85475 59.9879 9.28956 58.95 8.93929C57.9121 8.58902 56.8079 8.46209 55.7143 8.56731C54.5558 8.62284 53.4218 8.91114 52.3843 9.41392C51.3468 9.9167 50.4285 10.623 49.6875 11.488C48.1451 13.3058 47.3891 15.632 47.5781 17.9784C47.5973 20.294 48.546 22.5113 50.2232 24.1605C51.0119 24.9288 51.9647 25.5201 53.0147 25.893C54.0646 26.2658 55.1861 26.4111 56.3002 26.3185C57.4822 26.2825 58.641 25.9915 59.6923 25.4666C60.7436 24.9417 61.6608 24.1962 62.3772 23.2843C63.9323 21.374 64.6696 18.9571 64.4364 16.5343C64.3857 14.295 63.444 12.1613 61.808 10.5793L61.7243 10.5956ZM46.3728 20.8179C46.0045 20.8179 45.6194 21.1587 45.2009 21.8564L44.8493 22.4405C44.5959 22.8967 44.2199 23.278 43.7612 23.5439C43.0211 23.7737 42.2432 23.8673 41.4676 23.8197H38.2868C38.1335 23.8613 37.9714 23.8613 37.8181 23.8197C37.7667 23.8022 37.7226 23.769 37.6924 23.7251C37.6622 23.6812 37.6476 23.629 37.6507 23.5763C37.6336 23.507 37.6336 23.4347 37.6507 23.3654C37.7 23.2647 37.7559 23.1671 37.8181 23.0733L46.1886 10.6929C46.2934 10.5307 46.3884 10.3627 46.4732 10.1899C46.4899 10.0769 46.4899 9.96217 46.4732 9.84916C46.506 9.71143 46.489 9.56695 46.425 9.43993C46.361 9.31291 46.2539 9.21107 46.1217 9.15145C45.7673 9.00853 45.382 8.95279 45 8.98919H36.8304C36.2627 8.9919 35.6981 8.9098 35.1562 8.7458L34.2857 8.50241C33.7835 8.50241 33.3147 8.95674 32.8627 9.86539C32.4138 10.788 32.1904 11.7986 32.2098 12.8185C32.1768 13.1132 32.2606 13.409 32.4442 13.646C32.5021 13.7467 32.5873 13.8302 32.6906 13.8874C32.7938 13.9446 32.9112 13.9733 33.0301 13.9706C33.5156 13.9706 33.9844 13.5487 34.4531 12.7212C34.5167 12.6076 34.5895 12.4991 34.6708 12.3966C34.9045 11.9564 35.2575 11.5862 35.692 11.3257C36.2743 11.1135 36.8954 11.0196 37.5167 11.0499H40.0446C40.1991 11.0174 40.3589 11.0174 40.5134 11.0499C40.5603 11.0671 40.6002 11.0985 40.6273 11.1394C40.6545 11.1803 40.6673 11.2285 40.6641 11.277C40.6809 11.3737 40.6809 11.4724 40.6641 11.5691C40.6086 11.7174 40.5355 11.859 40.4464 11.991L32.5949 23.7548C32.4245 24.0032 32.2735 24.2636 32.1429 24.5337C32.0779 24.6769 32.0437 24.8315 32.0424 24.988C32.0251 25.1046 32.0409 25.2237 32.0881 25.3323C32.1353 25.4409 32.2121 25.5351 32.3103 25.6046C32.7308 25.739 33.1741 25.7941 33.6161 25.7668H42.5391C43.3337 25.7626 44.1261 25.8497 44.8996 26.0264H45.3013C45.8203 26.0264 46.2723 25.6046 46.6908 24.7608C47.1208 23.8964 47.333 22.9455 47.3103 21.9862C47.3294 21.6621 47.2477 21.3399 47.0759 21.0613C47.0163 20.9513 46.9275 20.8587 46.8186 20.793C46.7097 20.7274 46.5847 20.6912 46.4565 20.6881L46.3728 20.8179ZM23.7891 22.8462C23.4488 23.1192 23.0562 23.3243 22.6339 23.4496C22.2115 23.5749 21.7677 23.618 21.3281 23.5763C20.4188 23.6146 19.5281 23.3191 18.8337 22.7488C18.5279 22.4762 18.2882 22.1412 18.1319 21.7681C17.9756 21.3949 17.9065 20.9929 17.9297 20.5908C17.9065 20.1605 17.9902 19.7311 18.1738 19.3386C18.3573 18.9462 18.6353 18.6021 18.9844 18.3353C19.844 17.7363 20.8909 17.444 21.9475 17.5078C22.3545 17.4831 22.7627 17.4831 23.1696 17.5078C23.6231 17.5374 24.072 17.6136 24.5089 17.735V20.25C24.6073 21.1491 24.3433 22.0501 23.7723 22.765L23.7891 22.8462ZM29.7656 23.268H29.2299C29.101 23.2188 28.9864 23.1399 28.896 23.0381C28.8055 22.9363 28.742 22.8148 28.7109 22.6839C28.5809 22.2134 28.5245 21.7266 28.5435 21.2398V15.6418C28.5767 14.4792 28.4926 13.3162 28.2924 12.1695C28.1738 11.5824 27.9222 11.0282 27.5558 10.5469C26.9771 9.89605 26.2238 9.41309 25.3795 9.15145C24.3002 8.80395 23.1685 8.63393 22.0312 8.64844C20.1999 8.57579 18.3795 8.95546 16.7411 9.75181C16.1906 9.97733 15.7125 10.3415 15.3563 10.8066C15.0001 11.2717 14.7788 11.8207 14.7154 12.3966C14.6893 12.6094 14.707 12.825 14.7673 13.0311C14.8276 13.2372 14.9295 13.4296 15.067 13.5974C15.2137 13.7482 15.394 13.8646 15.5942 13.9377C15.7944 14.0108 16.0091 14.0387 16.2221 14.0192C16.681 13.9859 17.126 13.8516 17.5234 13.6267C17.9208 13.4018 18.2601 13.0921 18.5156 12.7212C18.6136 12.5566 18.7316 12.4041 18.8672 12.2668C19.2795 11.8142 19.7659 11.4305 20.3069 11.131C20.8285 10.8849 21.401 10.7573 21.981 10.7578C22.3471 10.7411 22.7122 10.8055 23.0487 10.9461C23.3852 11.0866 23.6842 11.2997 23.923 11.5691C24.4094 12.2413 24.6456 13.0538 24.5926 13.8732V15.6418C23.9732 15.5445 23.3705 15.4633 22.8181 15.4147C22.3162 15.3903 21.8133 15.3903 21.3114 15.4147C19.2774 15.2457 17.2438 15.7428 15.5357 16.8263C14.8481 17.3157 14.2937 17.96 13.9203 18.7034C13.547 19.4469 13.366 20.2673 13.3929 21.0938C13.3756 21.8058 13.5161 22.5132 13.8049 23.1682C14.0937 23.8232 14.5241 24.4106 15.067 24.8906C16.2067 25.8733 17.6944 26.3908 19.2188 26.3347C20.8264 26.2812 22.3841 25.7798 23.7054 24.8906C23.9324 24.725 24.1872 24.5987 24.4587 24.5174C24.7822 24.7985 25.0895 25.0964 25.3795 25.4099C25.581 25.6613 25.8335 25.8702 26.1214 26.0237C26.4093 26.1772 26.7265 26.272 27.0536 26.3023C28.0184 26.3174 28.9706 26.0881 29.8158 25.637C30.5859 25.1989 30.9877 24.6959 30.9877 24.1605C30.9877 23.625 30.6194 23.4952 29.8828 23.3005L29.7656 23.268ZM10.5971 8.56731C9.86874 8.59404 9.16927 8.85041 8.60491 9.29748C7.84561 9.95535 7.20112 10.728 6.69643 11.5853V10.9688C6.34487 9.44351 5.95982 8.76202 5.39062 8.76202C4.82298 8.78662 4.26066 8.87927 3.71652 9.03786C2.91038 9.24996 2.11679 9.50454 1.33929 9.80049C0.966029 9.92791 0.619942 10.1204 0.31808 10.3684C0.135409 10.5275 0.0217501 10.7479 0 10.985C0 11.3744 0.351563 11.6827 1.05469 11.8936C1.32785 11.9767 1.59611 12.0742 1.85826 12.1857C2.10938 12.3317 2.27679 12.7212 2.37723 13.3377C2.51099 14.7021 2.5613 16.0728 2.5279 17.4429V20.9639C2.5606 21.5923 2.49283 22.2217 2.32701 22.8299C2.28292 22.9998 2.20383 23.1592 2.0945 23.2986C1.98517 23.438 1.84787 23.5546 1.69085 23.6412L1.2221 23.8359C0.652902 24.0144 0.368304 24.3065 0.368304 24.6959C0.370199 24.9391 0.457429 25.1744 0.615646 25.3631C0.773863 25.5519 0.993645 25.6828 1.23884 25.7344C2.40046 25.9644 3.58657 26.057 4.77121 26.0102C5.89452 26.0438 7.01807 25.9512 8.11942 25.7344C8.78906 25.5397 9.10714 25.2314 9.10714 24.8095C9.10714 24.3876 8.75558 24.0144 8.03572 23.8035L7.34933 23.5763C7.17523 23.4724 7.02662 23.3328 6.91386 23.1675C6.8011 23.0022 6.7269 22.815 6.69643 22.619C6.52938 21.8897 6.46184 21.1424 6.49554 20.396C6.39195 18.1179 6.56614 15.8359 7.01451 13.5974C7.31585 12.5264 7.88505 11.9748 8.68862 11.9748C8.82255 11.9748 8.95647 12.1208 9.07366 12.4129C9.17037 12.6574 9.31219 12.8828 9.49219 13.0781C9.69278 13.3004 9.94536 13.4729 10.2288 13.5811C10.5156 13.6961 10.8225 13.7567 11.1328 13.7596C11.4337 13.7744 11.7337 13.7187 12.0077 13.5972C12.2816 13.4758 12.5213 13.2922 12.7065 13.0619C13.1563 12.5321 13.3993 11.8658 13.3929 11.1797C13.4215 10.8254 13.3696 10.4692 13.241 10.1364C13.1125 9.80354 12.9102 9.50203 12.6485 9.25304C12.3869 9.00405 12.0721 8.81363 11.7264 8.69516C11.3806 8.5767 11.0123 8.53306 10.6473 8.56731H10.5971ZM75.3348 8.56731C74.5718 8.57248 73.8335 8.83009 73.2422 9.29748C72.4347 9.94456 71.7444 10.7178 71.1998 11.5853V11.3257C71.2165 11.2073 71.2165 11.0872 71.1998 10.9688C71.0156 9.34616 70.6306 8.68089 70.0614 8.68089C69.5279 8.71617 69.0001 8.80869 68.4877 8.95674C67.685 9.16199 66.8965 9.41671 66.1272 9.71936C65.724 9.83632 65.3485 10.0293 65.0223 10.2873C64.9228 10.3762 64.8432 10.4841 64.7885 10.6041C64.7338 10.7241 64.7051 10.8538 64.7042 10.985C64.7042 11.3744 65.0558 11.6827 65.7589 11.8936C66.0385 11.974 66.3125 12.0715 66.5792 12.1857C66.8304 12.3317 66.9978 12.7212 67.0815 13.3377C67.2057 14.7026 67.2504 16.0732 67.2154 17.4429V20.9639C67.232 21.5948 67.1473 22.2243 66.9643 22.8299C66.8758 23.1687 66.6533 23.4601 66.3449 23.6412L65.8594 23.8359C65.2902 24.0144 65.0056 24.3065 65.0056 24.6959C65.0044 24.9399 65.0905 25.1767 65.2492 25.3661C65.4079 25.5554 65.6295 25.6856 65.8761 25.7344C67.0434 25.9643 68.2351 26.0569 69.4252 26.0102C70.5485 26.0425 71.6719 25.9499 72.7734 25.7344C73.4263 25.5397 73.7612 25.2314 73.7612 24.8095C73.7612 24.3876 73.4096 24.0144 72.7065 23.8035L71.9866 23.5763C71.8063 23.4759 71.6512 23.3379 71.5325 23.1724C71.4138 23.0068 71.3345 22.8178 71.3002 22.619C71.136 21.8892 71.0629 21.1428 71.0826 20.396C71.0123 18.1164 71.2032 15.8362 71.6518 13.5974C71.9866 12.5264 72.5558 11.9748 73.3259 11.9748C73.4598 11.9748 73.577 12.1208 73.7109 12.4129C73.8081 12.6537 73.9436 12.8782 74.1127 13.0781C74.327 13.2925 74.5831 13.4634 74.8661 13.5811C75.1445 13.7038 75.4476 13.7647 75.7533 13.7596C76.0544 13.7758 76.3549 13.7207 76.6291 13.5991C76.9033 13.4776 77.1428 13.2932 77.327 13.0619C77.7241 12.5186 77.9189 11.8606 77.8795 11.1959C77.8998 10.8719 77.854 10.5472 77.7447 10.2404C77.6353 9.93355 77.4645 9.65069 77.2421 9.40798C77.0197 9.16528 76.75 8.96752 76.4486 8.82605C76.1471 8.68457 75.8199 8.60216 75.4855 8.58354H75.2009L75.3348 8.56731ZM94.4531 7.07452C94.9305 7.43357 95.5235 7.61749 96.1272 7.59375C96.8012 7.62058 97.4639 7.41986 98.0022 7.02585C98.3815 6.73214 98.6271 6.30625 98.6866 5.83926C98.746 5.37228 98.6146 4.90129 98.3203 4.52705C98.2318 4.43297 98.1304 4.35108 98.019 4.28366C97.5455 3.91424 96.9526 3.71884 96.3449 3.73197C95.6727 3.70456 95.0147 3.92486 94.5033 4.34856C94.2709 4.51988 94.0821 4.74063 93.9514 4.99381C93.8208 5.24699 93.7519 5.52584 93.75 5.8089C93.7467 6.06766 93.8072 6.32343 93.9266 6.55489C94.046 6.78635 94.2208 6.98677 94.4364 7.13943L94.4531 7.07452ZM99.6763 23.9333L99.0067 23.6575C98.8597 23.5553 98.7361 23.4247 98.6439 23.2739C98.5517 23.1231 98.4928 22.9553 98.471 22.7813C98.3509 22.03 98.3061 21.2692 98.3371 20.5096V16.1286L98.4542 11.7963V10.0276C98.4987 9.64352 98.429 9.25508 98.2533 8.90806C98.1799 8.79779 98.0778 8.70823 97.9573 8.64841C97.8368 8.58859 97.7022 8.56061 97.567 8.56731C96.9274 8.61875 96.2941 8.72739 95.6752 8.89183C94.7681 9.10373 93.8784 9.38032 93.0134 9.71936C92.6255 9.85562 92.2635 10.053 91.942 10.3035C91.7433 10.4799 91.6233 10.7243 91.6071 10.985C91.6071 11.3744 91.9587 11.6827 92.6786 11.8936C92.9572 11.9766 93.2311 12.0741 93.4989 12.1857C93.6485 12.3071 93.7694 12.4584 93.8531 12.6292C93.9369 12.8 93.9817 12.9864 93.9844 13.1755C94.1181 14.339 94.1684 15.5101 94.135 16.6803V20.9639C94.1677 21.5923 94.1 22.2217 93.9342 22.8299C93.8901 22.9998 93.811 23.1592 93.7016 23.2986C93.5923 23.438 93.455 23.5546 93.298 23.6412L92.8292 23.8197C92.2768 24.0144 91.9754 24.3065 91.9754 24.6959C91.9742 24.9399 92.0603 25.1767 92.2191 25.3661C92.3778 25.5554 92.5993 25.6856 92.846 25.7344C94.0191 25.9632 95.2161 26.0558 96.4118 26.0102C97.4745 26.0579 98.539 25.9651 99.5759 25.7344C100.162 25.5559 100.446 25.2476 100.446 24.8095C100.446 24.3714 100.145 24.0469 99.5424 23.8522" fill="#2B2B2B"/>
</svg>
