<svg width="149" height="52" viewBox="0 0 149 52" fill="none" xmlns="http://www.w3.org/2000/svg">
<path d="M13.6497 5.13825H8.55908V0.0305481H5.09709V5.13825H0V8.61185H5.09709V13.7195H8.55908V8.61185H13.6497V5.13825Z" fill="#2B2B2B"/>
<path d="M101.83 18.4554C101.829 17.2017 101.332 15.9997 100.448 15.1132C99.5644 14.2266 98.3665 13.7278 97.1169 13.726H91.9407V29.3208H93.6756V23.1835H97.1169C97.2503 23.1835 97.3825 23.177 97.5159 23.164L100.322 29.3208H102.23L99.1964 22.6999C99.9841 22.3066 100.647 21.7014 101.113 20.952C101.578 20.2026 101.826 19.3383 101.83 18.4554ZM97.1169 21.4506H93.6756V15.4524H97.1169C97.9102 15.4538 98.6707 15.7706 99.2317 16.3335C99.7927 16.8964 100.108 17.6594 100.11 18.4554C100.107 19.2503 99.7906 20.0117 99.2297 20.5731C98.6688 21.1344 97.9091 21.45 97.1169 21.4506ZM40.48 24.5524C40.48 26.8703 38.9175 27.7998 37.031 27.7998C35.1381 27.7998 33.582 26.8703 33.582 24.5524V13.7195H31.8549V24.5667C31.8549 27.6282 33.9655 29.5275 37.031 29.5275C40.103 29.5275 42.2084 27.6282 42.2084 24.5667V13.7195H40.4813V24.5524H40.48ZM24.261 25.7419L21.9639 13.7273H19.8649L17.569 25.7419L15.4105 13.7273H13.6497L16.6348 29.3221H18.463L20.9118 17.2477L23.3619 29.3221H25.1887L28.1739 13.7273H26.4131L24.261 25.7419ZM83.2962 36.1627H78.133V51.7575H79.8614V45.6332H83.2962C84.5458 45.6326 85.7442 45.1342 86.6279 44.2477C87.5117 43.3612 88.0087 42.159 88.0097 40.9051C88.0132 40.2825 87.8937 39.6653 87.6582 39.0893C87.4227 38.5132 87.0758 37.9896 86.6376 37.5487C86.1994 37.1078 85.6785 36.7584 85.105 36.5205C84.5315 36.2826 83.9167 36.161 83.2962 36.1627ZM83.2962 43.8938H79.8614V37.9034H83.2962C83.6893 37.9031 84.0786 37.9805 84.4419 38.1313C84.8052 38.2821 85.1353 38.5033 85.4133 38.7822C85.6912 39.0612 85.9117 39.3923 86.062 39.7568C86.2123 40.1213 86.2894 40.512 86.2891 40.9064C86.2864 41.7006 85.9697 42.4612 85.4085 43.0213C84.8474 43.5814 84.0877 43.8952 83.2962 43.8938ZM127.09 13.7195L122.14 29.3156H123.941L125.094 25.7224H130.985L132.124 29.3156H133.951L128.97 13.7195H127.09ZM125.635 23.9947L128.044 16.4833L130.427 23.9947H125.635ZM112.21 35.9508C110.874 35.9529 109.594 36.4872 108.65 37.4362C107.707 38.3852 107.178 39.6713 107.179 41.0117V46.9098C107.178 48.2502 107.707 49.5363 108.65 50.4854C109.594 51.4344 110.874 51.9687 112.21 51.9707C113.547 51.969 114.829 51.4353 115.775 50.4866C116.721 49.5379 117.253 48.2517 117.255 46.9098V41.0117C117.253 39.6698 116.721 38.3834 115.775 37.4346C114.83 36.4858 113.547 35.9522 112.21 35.9508ZM115.52 46.9098C115.521 47.3463 115.436 47.7786 115.27 48.1819C115.104 48.5853 114.86 48.9518 114.553 49.2604C114.245 49.569 113.88 49.8136 113.478 49.9803C113.076 50.1469 112.645 50.2322 112.21 50.2313C111.775 50.2322 111.344 50.1469 110.942 49.9803C110.54 49.8136 110.175 49.569 109.867 49.2604C109.56 48.9518 109.316 48.5853 109.15 48.1819C108.984 47.7786 108.899 47.3463 108.9 46.9098V41.0117C108.9 39.1657 110.383 37.6785 112.21 37.6785C114.037 37.6785 115.52 39.167 115.52 41.0117V46.9098ZM52.3352 35.9508C50.9989 35.9536 49.7182 36.4879 48.7739 37.4366C47.8296 38.3853 47.2988 39.671 47.2977 41.0117V46.9098C47.2995 48.2504 47.8305 49.5357 48.7747 50.4842C49.7189 51.4328 50.9991 51.9673 52.3352 51.9707C53.6725 51.969 54.9544 51.4353 55.9 50.4865C56.8455 49.5378 57.3775 48.2515 57.3792 46.9098V41.0117C57.3775 39.67 56.8455 38.3838 55.9 37.435C54.9544 36.4863 53.6725 35.9526 52.3352 35.9508ZM55.6521 46.9098C55.6521 48.7428 54.1686 50.2313 52.3352 50.2313C50.5019 50.2313 49.0184 48.7558 49.0184 46.9098V41.0117C49.0175 40.5742 49.1027 40.1408 49.269 39.7364C49.4353 39.3319 49.6795 38.9644 49.9876 38.6547C50.2957 38.3451 50.6617 38.0995 51.0645 37.932C51.4674 37.7645 51.8992 37.6784 52.3352 37.6785C54.1621 37.6785 55.6521 39.167 55.6521 41.0117V46.9098ZM55.8037 25.7419L48.767 13.7273H47.1384V29.3208H48.8655V17.2984L55.9022 29.3143H57.5308V13.7195H55.8037V25.7419ZM147.215 13.726V25.7419L140.197 13.7273H138.556V29.3208H140.276V17.2984L147.321 29.3143H148.964V13.7195L147.215 13.726ZM131.514 48.1838L124.469 36.1627H122.841V51.7575H124.576V39.7364L131.606 51.7575H133.234V36.1627H131.514V48.1838ZM72.6912 24.2599V18.7817C72.6906 17.4414 72.1596 16.1562 71.215 15.2085C70.2705 14.2608 68.9896 13.728 67.6537 13.7273H62.4841V29.3208H67.6537C68.9896 29.3167 70.2695 28.782 71.2135 27.8336C72.1575 26.8852 72.6888 25.6003 72.6912 24.2599ZM64.2112 15.4524H67.646C68.0816 15.4523 68.513 15.5382 68.9155 15.7054C69.318 15.8726 69.6837 16.1177 69.9917 16.4268C70.2998 16.7359 70.5441 17.1028 70.7107 17.5067C70.8773 17.9105 70.963 18.3434 70.9628 18.7804V24.2599C70.9628 26.0929 69.4871 27.5879 67.646 27.5879H64.2112V15.4524ZM87.3865 27.5879H79.5945V22.3671H86.5379V20.6342H79.5945V15.4537H87.3865V13.7208H77.8687V29.3156H87.3878V27.5879H87.3865ZM112.21 21.4246L108.344 13.7273H106.543V29.3208H108.265V17.2984L111.653 24.1598H112.764L116.154 17.2984V29.3143H117.902V13.7195H116.101L112.21 21.4246ZM14.497 37.9034H20.0515V51.7575H21.7786V37.9034H27.3253V36.1627H14.497V37.9034ZM40.4191 43.0956H33.6403V36.1627H31.9132V51.7575H33.6403V44.8233H40.4127V51.7575H42.1475V36.1627H40.4127V43.0956H40.4191ZM98.2285 43.1099L95.7538 42.1271C94.085 41.4225 93.8596 40.6386 93.8596 39.9483C93.8596 39.3113 94.0993 38.7796 94.5618 38.3935C95.1177 37.9307 95.9793 37.6629 96.9588 37.6629C97.9642 37.6629 98.8129 37.9424 99.3687 38.4195C99.8831 38.8719 100.149 39.5102 100.149 40.3201V40.5996H101.884V40.3201C101.884 37.6109 99.8714 35.9365 96.9588 35.9365C94.0591 35.9365 92.1273 37.5849 92.1273 39.934C92.1273 42.0192 93.5966 43.1619 95.3962 43.8535L97.5937 44.7297C99.725 45.5552 100.348 46.1649 100.348 47.4415C100.348 48.2774 100.055 48.9417 99.4996 49.4201C98.9049 49.9362 97.9642 50.23 96.9057 50.23C95.794 50.23 94.8534 49.9635 94.2444 49.4591C93.7015 49.0067 93.423 48.3697 93.423 47.5871V47.201H91.6881V47.5871C91.6881 50.2833 93.8207 51.9694 96.9044 51.9694C99.9751 51.9694 102.068 50.1897 102.068 47.4415C102.069 44.783 100.029 43.8275 98.2285 43.1099ZM67.5864 43.8535L63.7072 36.1627H61.9127V51.7575H63.6398V39.7364L67.0357 46.603H68.1422L71.5381 39.7364V51.7575H73.2652V36.1627H71.4733L67.5864 43.8535Z" fill="#2B2B2B"/>
</svg>
