<svg width="124" height="18" viewBox="0 0 124 18" fill="none" xmlns="http://www.w3.org/2000/svg">
<g clip-path="url(#clip0_4391_236)">
<path d="M8.24955 0.989187H-0.00537109V17.821H8.24955C12.8083 17.821 16.5045 14.0534 16.5045 9.40554C16.5045 4.75675 12.8092 0.989187 8.24955 0.989187ZM8.24955 14.0807H3.6632V4.7295H8.24955C10.7774 4.7295 12.8351 6.82657 12.8351 9.40554C12.8351 11.9828 10.7774 14.0807 8.24955 14.0807ZM22.0078 0.989187H25.6763V17.8219H22.0078V0.989187ZM55.9436 0.832523H59.6121V17.6652H55.9436V0.832523ZM81.6244 0.833375V4.57369H75.2042V17.666H71.5356V4.57283H65.1153V0.833375H81.6244ZM31.1838 8.96109C31.3333 4.38979 35.1629 0.833375 39.65 0.833375H47.6878V4.55325C47.6878 4.56433 47.6795 4.57283 47.6686 4.57283H39.4337C36.8074 4.57283 34.6886 6.83678 34.8573 9.55028C35.0126 12.0441 37.163 13.9241 39.6132 13.9241H44.0009C44.0116 13.9241 44.0201 13.9147 44.0201 13.9036V8.33359C44.0201 8.32252 44.0292 8.31401 44.0401 8.31401H47.6694C47.6803 8.31401 47.6886 8.32252 47.6886 8.33359V17.6457C47.6886 17.6559 47.6803 17.6652 47.6694 17.6652H39.4345C34.7814 17.6652 31.0276 13.7402 31.1838 8.96109ZM110.784 12.6154C110.784 13.4728 112.571 14.3592 115.56 14.3592C118.55 14.3592 120.337 13.4728 120.337 12.6154C120.337 9.8338 107.129 12.1046 107.129 5.88319C107.129 2.90149 110.753 0.653724 115.56 0.653724C120.367 0.653724 123.991 2.90149 123.991 5.88319H120.337C120.337 5.0258 118.55 4.13946 115.56 4.13946C112.58 4.13946 111.02 5.01644 111.02 5.88319C111.02 8.38979 123.991 6.32508 123.991 12.6154C123.991 15.5971 120.367 17.8458 115.56 17.8458C110.753 17.8458 107.129 15.5971 107.129 12.6154H110.784ZM82.9406 17.6652H87.1878L88.5256 15.3271H97.8854L99.2725 17.6652H103.561L93.061 -0.0223083L82.9406 17.6652ZM95.9412 12.0543H90.3979L93.1186 7.29911L95.9412 12.0543Z" fill="#2B2B2B"/>
</g>
<defs>
<clipPath id="clip0_4391_236">
<rect width="124" height="18" fill="white"/>
</clipPath>
</defs>
</svg>
