<svg width="162" height="27" viewBox="0 0 162 27" fill="none" xmlns="http://www.w3.org/2000/svg">
<path d="M32.5642 17.6282C32.7355 17.5642 32.9853 17.7205 33.7774 18.1824C35.169 19.0137 36.7891 20.7118 36.8105 21.735C36.8105 22.7724 34.8194 24.641 33.3635 25.451C31.8862 26.261 27.8612 27.4476 26.6123 26.261C25.4205 25.1171 26.6337 23.3053 26.9977 22.7582C27.0191 22.7297 27.0334 22.7084 27.0476 22.6871C27.3331 22.2324 26.9049 21.7918 26.02 22.0832C25.1779 22.3816 21.7666 22.7297 20.8246 22.8221C20.796 22.8221 20.7675 22.8292 20.7389 22.8292C19.9396 22.8932 18.5409 22.6018 17.8843 22.4526C16.7924 23.3479 10.8262 24.1579 9.44887 23.9447C8.93504 23.8595 8.57108 23.5184 8.22852 23.1916C7.85028 22.8292 7.48632 22.4882 6.94394 22.5308C6.1161 22.5947 5.28112 23.5753 4.80297 24.1508C4.68878 24.2858 4.59601 24.3924 4.52464 24.4634C4.282 24.6979 3.96799 24.7547 3.66112 24.8045C3.51839 24.84 3.36852 24.8684 3.21865 24.9182C3.10447 24.9608 2.91178 25.0887 2.69055 25.2379C2.0768 25.65 1.20614 26.2326 0.87786 25.6642C0.107111 24.3284 2.16244 22.9429 4.13213 21.6142C4.78156 21.1808 5.41671 20.7474 5.94482 20.3282C8.07865 18.6087 12.7745 14.2247 13.2098 13.7842C13.2955 13.6989 13.4025 13.6208 13.5096 13.5426C13.9663 13.2158 14.3874 12.9103 12.6175 12.3703C10.4052 11.7024 9.54165 9.9971 9.23478 9.17289C8.89936 8.27763 8.65671 7.48184 9.15627 7.1621C9.95557 6.64342 10.4694 7.31131 11.3543 8.80342C12.0394 9.97579 13.3383 10.3879 14.4231 10.736C14.8084 10.8568 15.1724 10.9776 15.465 11.1126C16.2001 10.3808 22.0735 4.44079 23.094 3.31816C24.1216 2.21684 29.103 -1.35711 31.1583 0.575525C34.0415 3.28973 29.524 7.85131 26.0913 10.0113C23.9076 11.3897 19.8112 12.3418 17.4561 12.8889C16.8923 13.0168 16.4284 13.1305 16.1144 13.2158C16.0359 13.3011 15.9431 13.4005 15.8432 13.5142C14.8655 14.5871 12.8744 16.7684 12.0751 17.3724C11.8946 17.9062 11.6922 18.4324 11.4685 18.9497C11.2402 19.4897 11.0689 19.8876 10.9047 20.7189C10.6621 21.9197 11.2616 22.0405 11.9824 22.1897L12.3749 22.275C13.2598 22.4882 14.9583 21.8984 16.4284 21.1879C17.3562 20.7332 17.4918 20.3495 17.6773 19.8521C17.7344 19.6958 17.7987 19.5253 17.8914 19.3405C18.5979 17.9266 21.16 16.6476 23.0726 16.5624C24.978 16.4984 24.8995 18.6371 23.7291 19.5324C22.5587 20.4276 23.4437 20.7189 25.1208 20.7971C26.7979 20.8753 29.6739 20.051 30.3305 19.7597C30.8086 19.5324 31.2083 19.0918 31.6222 18.63C31.7792 18.4595 31.9362 18.2818 32.0932 18.1184C32.3501 17.8413 32.4357 17.6708 32.5642 17.6282ZM20.4249 8.32026C20.0538 8.65421 19.697 8.98816 19.1118 10.0753C18.4124 11.3755 19.1903 11.2263 19.9896 11.0771C20.1965 11.0345 20.4035 10.9989 20.589 10.9847C21.474 10.9208 23.0083 10.4021 24.9209 9.42868C26.8264 8.45526 29.6168 5.33605 30.1306 4.44789C30.6445 3.55263 30.8514 1.69105 29.0245 1.76921C25.7702 1.8971 22.1234 6.36631 21.0672 7.65947C21.0529 7.68079 21.0387 7.695 21.0244 7.70921C20.796 7.97921 20.6105 8.14973 20.4249 8.32026ZM20.9031 19.511C21.3669 19.3974 22.102 18.8929 22.2519 18.7508C22.3946 18.6016 22.5088 18.2463 22.0735 18.1966C21.317 18.0971 20.325 18.8432 20.0681 19.0421C20.011 19.0847 19.961 19.1132 19.9182 19.1345C19.8183 19.1913 19.7255 19.241 19.5542 19.4258C19.3473 19.646 19.54 19.646 19.7255 19.6532H19.854C20.0752 19.6745 20.4392 19.6247 20.9031 19.511ZM30.2377 25.0887C30.3804 24.8471 30.6016 24.4918 31.872 24.3497C33.8631 24.1224 35.1762 22.5663 35.1619 21.6853C35.1619 20.79 34.7266 19.6105 33.4777 19.6105C32.3144 19.6105 30.3947 21.7776 29.1458 23.1845C28.896 23.4687 28.6748 23.7174 28.4892 23.9163C27.3831 25.1029 29.2885 25.3303 29.8809 25.3303C30.1021 25.3232 30.1592 25.2237 30.2377 25.0887ZM155.427 12.2566C157.361 12.3134 159.288 12.3703 160.052 12.4271C161.322 12.5266 162.307 12.7184 161.907 13.7274C161.508 14.8074 160.922 15.4966 160.137 15.4966C159.723 15.4966 159.474 15.2763 159.188 15.0347C158.931 14.8074 158.639 14.5587 158.175 14.4237C157.19 14.1182 154.742 13.635 154.05 13.7345C153.743 13.7771 153.572 13.8624 153.436 13.9334C153.272 14.0187 153.144 14.0755 152.872 14.0258C152.637 13.9832 152.423 13.8055 152.209 13.6137C151.966 13.4076 151.709 13.1874 151.395 13.1376C151.11 13.0879 150.917 13.1874 150.717 13.2797C150.517 13.3792 150.325 13.4716 150.025 13.4289L143.631 12.6403C142.346 12.6403 141.261 12.4129 140.212 12.1926C139.577 12.0576 138.963 11.9297 138.328 11.8587C137.607 11.7663 136.58 11.6811 135.573 11.5958C134.239 11.4821 132.94 11.3755 132.433 11.2618C132.027 11.1766 131.491 11.1055 130.956 11.0416C130.321 10.9634 129.707 10.8853 129.386 10.7787C128.794 10.5726 127.117 10.2813 127.809 12.0505C128.501 13.8197 128.794 15.9726 128.886 16.8537C128.986 17.7347 129.179 18.5234 130.157 17.6424L130.428 17.3937C131.406 16.4984 132.754 15.2692 133.297 16.1645C133.889 17.145 133.604 18.225 133.004 18.8147C132.747 19.0705 132.291 19.2766 131.812 19.4826C131.192 19.7526 130.535 20.0439 130.249 20.4845C130.078 20.7616 129.629 21.2732 129.115 21.8629C128.144 22.9713 126.931 24.3639 126.803 25.0034L126.76 25.1953C126.56 26.1545 126.324 27.3055 125.218 26.4813C124.041 25.6003 123.848 25.2095 124.233 24.5203C124.269 24.4563 124.312 24.3853 124.355 24.3213C124.733 23.6889 125.097 23.0921 123.755 23.4403C122.271 23.8239 121.693 23.6321 121.193 22.751C121.1 22.5876 121.043 22.4171 120.993 22.2679C120.765 21.5929 120.629 21.1808 118.146 22.4668C115.099 24.0442 112.429 25.1029 111.345 25.1029C110.36 25.1029 109.746 24.7832 109.382 24.2005C108.483 25.0674 106.77 25.1029 106.77 25.1029C106.677 25.1171 106.563 25.1029 106.413 25.0532C106.299 25.0105 106.185 24.975 106.064 24.9395C105.571 24.7974 105.093 24.6553 105.093 23.8808C105.093 23.6747 105.1 23.4687 105.115 23.2839C105.15 22.5805 105.179 22.0334 104.658 21.9695C104.365 21.941 103.509 22.5876 102.56 23.3053C101.389 24.1934 100.076 25.181 99.5052 25.1384C98.4775 25.0745 98.3276 24.1934 98.6202 23.5966C98.6274 23.5753 98.6416 23.561 98.6488 23.5397C98.9485 22.9358 99.5409 21.7634 98.763 21.6213C98.4846 21.5716 97.8423 21.9482 96.9646 22.4597C95.2661 23.4545 92.6898 24.9608 90.2134 24.8542C88.3864 24.776 88.6576 23.7813 88.9074 22.8789C89.1072 22.14 89.2927 21.465 88.3008 21.4011C87.9225 21.3726 87.4301 21.8416 86.7521 22.4882C85.3105 23.8595 83.0197 26.0337 79.166 26.0337C75.6976 26.0337 75.6976 25.0745 75.7047 24.3142C75.7047 23.831 75.7047 23.4189 74.8198 23.3834C74.0776 23.3479 73.0999 23.9021 72.0437 24.5132C70.7876 25.2308 69.4246 26.0195 68.1828 25.9555C66.6984 25.8774 66.6984 24.9892 66.6984 24.705C66.6984 24.5913 67.1694 24.1366 67.7332 23.5895C68.5824 22.7653 69.6529 21.7279 69.6529 21.33C69.6529 20.8824 68.7823 20.9463 67.9187 21.0103C67.5048 21.0387 67.098 21.0671 66.784 21.0458C66.5913 21.0316 66.363 21.0174 66.1132 20.996C65.0927 20.9108 63.6582 20.79 62.3522 20.9037C61.5315 22.1542 58.7268 24.1508 57.4066 24.9537C56.0863 25.7566 53.6385 26.9147 51.733 26.7229C49.3351 26.4742 48.8142 24.9821 48.4573 23.9518C48.2789 23.4332 48.1362 23.0282 47.815 22.9784C47.1585 22.8718 46.7731 23.2129 46.3877 23.5468C46.038 23.8524 45.6883 24.1579 45.1531 24.0868C44.0612 23.9447 43.9756 22.1116 44.2039 21.3726C44.4323 20.6479 46.2664 18.0616 47.1513 17.2587C47.5938 16.8466 48.1005 16.2568 48.543 15.731C48.9854 15.2124 49.3708 14.7505 49.5849 14.6084C50.0202 14.3029 50.2486 13.5 49.7276 13.5C49.2138 13.5 49.3708 12.2495 49.8061 11.9582C50.2415 11.6668 52.2254 11.5887 53.1889 11.6668C54.0381 10.7645 56.4574 9.22973 57.8847 8.32737C58.0846 8.19947 58.2701 8.08579 58.42 7.98631C58.5698 7.88684 58.734 7.78026 58.8981 7.67368C60.1542 6.84237 61.9312 5.66289 63.8794 5.78368C65.5708 5.89737 66.8268 7.98631 66.6841 10.2671C66.5557 12.3134 65.1783 13.0737 64.3576 13.5142C64.2648 13.5639 64.1792 13.6137 64.1007 13.6563C63.9365 13.7558 63.7438 13.8268 63.5512 13.905C62.9017 14.1466 62.2666 14.381 62.7804 15.795C63.2942 17.2445 63.0016 18.0971 62.8518 18.5447C62.809 18.6655 62.7804 18.7579 62.7804 18.8218V18.8858C62.7733 19.2197 62.7661 19.9942 63.6653 19.9942C64.2149 19.9942 65.7421 19.9658 67.0409 19.9445C67.9972 19.9303 68.8251 19.916 69.0463 19.916H69.2247C69.71 19.9232 70.2809 19.9303 70.7377 19.5466C70.8162 19.4826 70.8804 19.4258 70.9446 19.3689C71.3229 19.0421 71.5298 18.8645 72.2221 19.1132C73.0285 19.4045 72.9643 20.2855 72.5932 20.8042C72.2364 21.3158 71.1944 22.4242 70.7591 22.8008C69.4031 23.9447 70.4379 24.4421 71.5655 23.9092C72.1507 23.6321 72.7859 23.3834 73.3925 23.1489C74.4487 22.7439 75.405 22.3745 75.8403 21.9126C77.5317 20.0795 79.2231 20.2216 78.4166 21.9126C77.5959 23.6037 78.0455 24.5629 79.2231 24.8542C80.4006 25.1455 83.2053 23.8239 84.2329 23.085C85.2606 22.3603 86.8092 21.1737 87.1018 20.8824C87.3944 20.591 87.4872 20.4489 87.6156 19.9374C87.8012 19.2268 88.1652 19.376 88.5434 19.5324C88.6505 19.575 88.7646 19.6247 88.8717 19.646C88.9002 19.6532 88.9216 19.6603 88.9502 19.6603C89.6282 19.8095 90.7843 20.0582 90.7058 21.1879C90.663 21.941 90.5559 21.941 90.4846 21.941C90.4417 21.941 90.4132 21.941 90.4132 22.076V22.2182C90.3989 22.6729 90.3632 23.561 91.1554 23.7671C92.0403 23.9732 95.5087 22.5166 96.6149 21.7705C97.7282 21.0458 99.705 19.8592 100.818 19.9374C101.396 19.98 101.296 20.6266 101.189 21.2732C101.089 21.8629 100.997 22.4526 101.418 22.5947C101.789 22.7226 102.353 22.2821 103.016 21.7634C103.923 21.0458 105.036 20.1789 106.142 20.3921C107.684 20.6905 107.462 21.4153 107.277 22.0263C107.234 22.1755 107.191 22.3176 107.17 22.4455C107.12 22.9429 107.198 23.5539 107.427 23.7813C107.955 24.0513 108.697 23.5539 109.004 23.3337C109.04 23.2982 109.054 23.2555 109.054 23.22C109.032 23.1134 108.968 22.9429 108.897 22.7653C108.811 22.5379 108.718 22.3034 108.718 22.1897C108.747 21.3868 109.204 20.7758 110.538 20.0653C111.074 19.7882 111.473 19.5537 111.809 19.3547C112.772 18.8005 113.179 18.5589 114.563 18.4879C116.369 18.4097 117.125 19.916 115.805 20.7189C113.436 22.1684 113.022 23.5184 115.512 22.7795C117.339 22.2395 118.331 21.5005 119.223 20.8326C119.559 20.5839 119.887 20.3424 120.23 20.1221C121.279 19.4755 122.064 18.5589 122.756 17.7632C122.899 17.5926 123.042 17.4292 123.184 17.2729C123.976 16.3918 126.439 16.7897 124.954 18.8503C124.84 19.0137 124.726 19.1629 124.626 19.3121C123.406 21.0174 122.963 21.6284 123.777 22.1826C124.612 22.7439 125.625 21.7279 126.232 21.1097C126.267 21.0742 126.303 21.0387 126.332 21.0032L126.389 20.9463C126.988 20.3566 128.087 19.2624 127.602 16.6974C127.502 16.136 127.416 15.5818 127.345 15.0418C127.052 13.031 126.81 11.3116 125.639 11.006C124.155 10.601 122.499 8.44816 124.754 8.44816C126.31 8.44816 127.181 8.81763 127.959 9.13737C128.508 9.37184 129.015 9.57789 129.671 9.62052C130.456 9.67026 131.406 9.84079 132.291 9.9971C133.197 10.1605 134.039 10.3097 134.581 10.3097C135.659 10.3097 139.498 10.7929 140.383 11.3897C141.069 11.8374 142.517 11.7663 143.638 11.7095C143.966 11.6953 144.266 11.6811 144.508 11.6811C145.6 11.6811 147.035 11.8089 148.498 11.9297C149.661 12.0292 150.846 12.1358 151.88 12.1784C152.844 12.1784 154.136 12.2211 155.427 12.2566ZM51.6188 25.0318C53.246 25.1739 56.9356 23.1205 57.9632 22.0121C58.4985 21.4437 58.8482 21.2092 58.8125 21.0671C58.7839 20.9534 58.5127 20.8895 57.899 20.7545C57.0283 20.5768 54.5805 20.385 53.3245 20.385C52.9462 20.385 52.5466 20.3992 52.0827 20.4134C51.4547 20.4347 50.7196 20.4632 49.7776 20.4632C48.5929 22.6871 49.9917 24.8897 51.6188 25.0318ZM60.1113 19.6674C60.5467 19.1558 61.139 18.1113 61.2889 17.1592C61.4316 16.2142 60.4039 15.39 59.5975 14.8926C59.2621 14.8642 58.8125 14.8571 58.3129 14.85C57.585 14.8358 56.75 14.8216 56.0506 14.7505C55.8865 14.7292 55.7295 14.7079 55.5582 14.6866C55.0444 14.6084 54.4734 14.5303 53.6956 14.5303C53.0319 15.0418 51.3405 17.2445 50.9765 17.8413C50.6054 18.4168 50.7482 19.0918 51.4904 19.0137C52.2326 18.9355 53.6956 18.9355 55.1015 19.0137C55.7366 19.0421 56.6216 19.1984 57.4922 19.3547C58.527 19.5253 59.5476 19.71 60.1113 19.6674ZM58.2344 10.26C56.2219 11.3542 54.3735 12.3489 59.2835 12.5266C60.6823 12.5763 63.9223 12.5266 64.0008 10.1818C64.065 7.8371 63.4013 7.60973 62.7447 7.60973C62.2023 7.60973 61.3246 8.24921 60.4468 8.88868C60.2541 9.02368 60.0685 9.16579 59.883 9.30079C59.4334 9.61342 58.8268 9.94026 58.2344 10.26ZM113 20.9463C113.036 20.9108 113.065 20.8895 113.086 20.8682C113.107 20.8468 113.143 20.8255 113.179 20.7971C113.343 20.6763 113.586 20.5058 113.307 20.385C112.772 20.1576 112.387 20.385 112.137 20.5342C112.101 20.5555 112.066 20.5768 112.037 20.591C111.994 20.6124 111.93 20.6408 111.844 20.6763C111.595 20.7829 111.202 20.9463 111.024 21.1026C110.795 21.3087 110.667 21.536 110.831 21.6C110.995 21.6639 111.473 21.7634 111.973 21.6142C112.444 21.4934 112.815 21.1239 113 20.9463Z" fill="#2B2B2B"/>
</svg>
