<svg width="101" height="49" viewBox="0 0 101 49" fill="none" xmlns="http://www.w3.org/2000/svg">
<g clip-path="url(#clip0_4391_216)">
<path d="M11.3895 7.52305H11.4529L13.9096 15.591H8.71458L11.3895 7.52305ZM0.0703125 25.3909H5.58209L7.16594 20.687H15.4864L16.9365 25.3909H24.194L15.8384 0.702332H8.32742L0.0703125 25.3909Z" fill="#2B2B2B"/>
<path d="M32.4511 5.40627H35.6469C37.449 5.40627 39.0328 5.9907 39.0328 8.34268C39.0328 10.2385 37.625 11.1936 35.4498 11.1508H32.4511V5.40627ZM25.4822 25.3624H32.4511V15.8547H36.3509C44.256 15.8547 46.3889 12.0702 46.3889 8.30704C46.3889 5.94794 45.4527 0.702332 37.6461 0.702332H25.4822V25.3624Z" fill="#2B2B2B"/>
<path d="M62.3824 9.41887C62.1571 7.20232 60.9745 5.14256 58.6726 5.14256C55.9625 5.14256 54.611 7.4589 54.611 12.7829C54.611 18.3065 55.8358 20.9507 59.3203 20.9507C61.8333 20.9507 63.4171 18.6628 63.8958 16.3465L69.126 17.4868C67.4788 23.3311 63.8958 25.847 57.9617 25.847C53.2524 25.847 47.2549 22.1266 47.2549 13.239C47.2549 4.16614 53.0623 0.246185 58.9683 0.246185C65.0573 0.246185 68.415 4.42272 68.9008 8.93423L62.3824 9.41887Z" fill="#2B2B2B"/>
<path d="M82.36 5.14256C85.0701 5.14256 86.654 6.77469 86.654 13.0466C86.654 19.6749 84.7181 20.9507 82.36 20.9507C80.0018 20.9507 78.073 19.6749 78.073 13.0466C78.059 7.0669 79.5443 5.14256 82.36 5.14256ZM93.9889 13.0751C93.9889 5.23522 89.6034 0.246185 82.3459 0.246185C75.0884 0.246185 70.7029 5.1782 70.7029 13.0751C70.7029 20.972 75.0884 25.9041 82.3459 25.9041C89.6034 25.9041 93.9889 20.915 93.9889 13.0751Z" fill="#2B2B2B"/>
<path d="M93.8833 32.29H0V32.7461H93.8833V32.29Z" fill="#2B2B2B"/>
<path d="M0.513916 39.9161H1.76691L3.65345 46.8437L5.42031 39.9161H6.39174L8.27827 46.8437L10.2634 39.9161H11.3826L8.80622 48.5186H7.70105L5.86379 41.7122L4.1462 48.5186H3.00583L0.513916 39.9161Z" fill="#2B2B2B"/>
<path d="M14.853 44.2209C14.853 41.4413 16.4087 39.688 18.6543 39.688C20.8998 39.688 22.5259 41.4413 22.5259 44.2209C22.5259 47.0005 20.9561 48.7538 18.6894 48.7538C16.4228 48.7538 14.853 46.9791 14.853 44.2209ZM21.0969 44.2209C21.0969 42.0258 20.1255 40.7571 18.6543 40.7571C17.183 40.7571 16.2257 42.0115 16.2257 44.2209C16.2257 46.4304 17.1971 47.6847 18.6543 47.6847C20.1114 47.6847 21.118 46.3947 21.118 44.2209H21.0969Z" fill="#2B2B2B"/>
<path d="M27.228 39.9161H28.4388V41.8404C28.9456 40.415 29.7411 39.7023 30.9166 39.7023C31.0644 39.7023 31.2123 39.7023 31.3812 39.7023V40.9923H31.163C29.544 40.9923 28.5021 42.2111 28.5021 44.1995V48.5186H27.228V39.9161Z" fill="#2B2B2B"/>
<path d="M35.429 36.9084H36.6819V48.5186H35.429V36.9084Z" fill="#2B2B2B"/>
<path d="M48.5291 48.5186H47.3887V46.8152C47.1904 47.3621 46.8337 47.8357 46.3652 48.1739C45.8967 48.5122 45.3383 48.6994 44.763 48.711C42.9258 48.711 41.4897 46.9863 41.4897 44.2637C41.4897 41.5411 42.961 39.7094 44.8475 39.7094C45.3562 39.7174 45.8532 39.8647 46.2857 40.1358C46.7183 40.4069 47.0703 40.7915 47.3042 41.2489V36.9013H48.5291V48.5186ZM45.0516 40.8213C43.7564 40.8213 42.8483 42.0471 42.8483 44.2209C42.8483 46.3947 43.7282 47.585 45.0657 47.585C46.2694 47.585 47.2761 46.5087 47.2761 44.8196V43.5011C47.3042 41.8262 46.4173 40.8213 45.0516 40.8213Z" fill="#2B2B2B"/>
<path d="M52.7949 39.9161H54.055L55.9415 46.8437L57.7224 39.9161H58.7079L60.5945 46.8437L62.5725 39.9161H63.6988L61.1224 48.5186H60.0173L58.18 41.7122L56.4624 48.5186H55.322L52.7949 39.9161Z" fill="#2B2B2B"/>
<path d="M67.8167 36.9084H69.0696V38.1771H67.8167V36.9084ZM67.8167 39.9161H69.0696V48.5186H67.8167V39.9161Z" fill="#2B2B2B"/>
<path d="M80.9521 48.5186H79.8118V46.8152C79.6105 47.3672 79.2482 47.8441 78.7729 48.1827C78.2977 48.5213 77.732 48.7056 77.1509 48.7111C75.3207 48.7111 73.9128 46.9934 73.9128 44.2708C73.9128 41.5482 75.3841 39.7165 77.2706 39.7165C77.7792 39.7245 78.2763 39.8719 78.7088 40.1429C79.1414 40.414 79.4934 40.7986 79.7273 41.256V36.9084H80.9521V48.5186ZM77.5029 40.8213C76.2077 40.8213 75.2996 42.0471 75.2996 44.2209C75.2996 46.3947 76.1795 47.585 77.517 47.585C78.7207 47.585 79.7273 46.5088 79.7273 44.8196V43.5011C79.6921 41.8262 78.8404 40.8213 77.4677 40.8213H77.5029Z" fill="#2B2B2B"/>
<path d="M89.4768 48.7538C87.196 48.7538 85.6755 47.0148 85.6755 44.2209C85.6755 41.4271 87.2453 39.688 89.4768 39.688C91.7082 39.688 93.2287 41.3558 93.2287 44.1354V44.3207H87.0482V44.3706C87.0482 46.4589 88.0408 47.6634 89.5753 47.6634C90.0873 47.6677 90.5878 47.509 91.0059 47.2098C91.424 46.9105 91.7386 46.4858 91.9053 45.9956L93.1091 46.2094C92.8671 46.9807 92.3792 47.649 91.7219 48.1094C91.0646 48.5699 90.275 48.7965 89.4768 48.7538ZM91.8561 43.3799C91.7927 41.7122 90.9128 40.7571 89.5401 40.7571C88.1675 40.7571 87.2805 41.6765 87.0623 43.3799H91.8561Z" fill="#2B2B2B"/>
<path d="M100.226 37.2078C100.725 37.7203 101.003 38.4122 101 39.1321C101.005 39.4887 100.939 39.8426 100.805 40.1722C100.67 40.5019 100.471 40.8003 100.219 41.0493C99.711 41.5648 99.023 41.8567 98.304 41.8618C97.5919 41.8544 96.9111 41.5642 96.4082 41.0536C95.9053 40.5431 95.6205 39.8531 95.615 39.1321C95.6178 38.7687 95.6921 38.4094 95.8335 38.0754C95.9749 37.7413 96.1806 37.4391 96.4386 37.1864C96.6835 36.9341 96.9762 36.7347 97.2992 36.5999C97.6222 36.4652 97.9688 36.398 98.3181 36.4024C98.6727 36.403 99.0238 36.4744 99.3512 36.6126C99.6785 36.7508 99.9757 36.9531 100.226 37.2078ZM100 37.4358C99.7797 37.2075 99.5156 37.0267 99.2241 36.9042C98.9325 36.7818 98.6196 36.7202 98.304 36.7231C97.9949 36.7218 97.6888 36.7844 97.4044 36.9069C97.1199 37.0295 96.8632 37.2094 96.6498 37.4358C96.4262 37.6609 96.2489 37.9285 96.1281 38.2233C96.0072 38.5182 95.9453 38.8343 95.9458 39.1535C95.9475 39.4681 96.0105 39.7793 96.1313 40.0692C96.2521 40.3591 96.4283 40.6219 96.6498 40.8426C96.8652 41.0683 97.1234 41.2476 97.4088 41.3701C97.6942 41.4925 98.0011 41.5555 98.311 41.5553C98.6262 41.5555 98.9384 41.4926 99.2295 41.3703C99.5206 41.248 99.785 41.0687 100.008 40.8426C100.23 40.626 100.408 40.366 100.529 40.0781C100.65 39.7903 100.712 39.4806 100.711 39.1677C100.714 38.8455 100.652 38.5262 100.53 38.2286C100.408 37.9311 100.228 37.6615 100 37.4358ZM99.6626 38.3909C99.6692 38.593 99.6005 38.7902 99.4701 38.9434C99.3396 39.0966 99.1571 39.1945 98.9587 39.2176L99.6626 40.6431H99.0854L98.4377 39.2889H97.7831V40.6431H97.2622V37.5285H98.4025C99.2543 37.5285 99.6626 37.8064 99.6626 38.3909ZM97.7549 37.8706V38.9539H98.297C98.8671 38.9539 99.1276 38.8256 99.1276 38.4265C99.1276 38.0274 98.8601 37.8706 98.2829 37.8706H97.7549Z" fill="#2B2B2B"/>
</g>
<defs>
<clipPath id="clip0_4391_216">
<rect width="101" height="49" fill="white"/>
</clipPath>
</defs>
</svg>
