<svg width="35" height="35" viewBox="0 0 35 35" fill="none" xmlns="http://www.w3.org/2000/svg">
<path d="M30.625 2.1875H4.375C2.56594 2.1875 1.09375 3.65969 1.09375 5.46875V22.9688C1.09375 24.7778 2.56594 26.25 4.375 26.25H7.65625V31.7188C7.65625 32.1398 7.89797 32.5216 8.27531 32.7042C8.42734 32.7764 8.58922 32.8125 8.75 32.8125C8.99391 32.8125 9.23563 32.7316 9.43359 32.573L17.337 26.25H30.625C32.4341 26.25 33.9062 24.7778 33.9062 22.9688V5.46875C33.9062 3.65969 32.4341 2.1875 30.625 2.1875ZM17.5 17.5H8.75C8.14516 17.5 7.65625 17.01 7.65625 16.4062C7.65625 15.8025 8.14516 15.3125 8.75 15.3125H17.5C18.1048 15.3125 18.5938 15.8025 18.5938 16.4062C18.5938 17.01 18.1048 17.5 17.5 17.5ZM26.25 13.125H8.75C8.14516 13.125 7.65625 12.635 7.65625 12.0312C7.65625 11.4275 8.14516 10.9375 8.75 10.9375H26.25C26.8548 10.9375 27.3438 11.4275 27.3438 12.0312C27.3438 12.635 26.8548 13.125 26.25 13.125Z" fill="#2691C6"/>
</svg>
